<svg xmlns="http://www.w3.org/2000/svg" xmlns:xlink="http://www.w3.org/1999/xlink" width="500" zoomAndPan="magnify" viewBox="0 0 375 374.999991" height="500" preserveAspectRatio="xMidYMid meet" version="1.0"><defs><clipPath id="9ff0e9f9a9"><path d="M 115 133 L 325 133 L 325 333.800781 L 115 333.800781 Z M 115 133 " clip-rule="nonzero"/></clipPath><clipPath id="4ca6b37463"><path d="M 356.738281 41.300781 L 375 41.300781 L 375 153.800781 L 356.738281 153.800781 Z M 356.738281 41.300781 " clip-rule="nonzero"/></clipPath></defs><g clip-path="url(#9ff0e9f9a9)"><path fill="#ed0e64" d="M 202.792969 198.960938 C 130.207031 158.71875 83.523438 245.152344 140.378906 297.492188 C 151.847656 282.386719 162.550781 262.800781 171.546875 233.109375 C 179.675781 206.265625 206.53125 197.433594 232.007812 201.339844 C 252.359375 204.46875 253.546875 215.835938 275.507812 217.109375 C 293.898438 218.1875 305.636719 211.734375 300.824219 240.296875 C 297.796875 258.238281 285.738281 264.929688 270.542969 268.097656 C 245.617188 273.292969 244.359375 275.824219 249.96875 300.527344 C 252.671875 312.4375 255.886719 323.542969 259.726562 333.632812 C 268.882812 333.695312 278.492188 333.414062 288.671875 332.710938 C 404.121094 128.355469 201.011719 76.917969 202.792969 198.960938 " fill-opacity="1" fill-rule="evenodd"/></g><path fill="#fbc108" d="M 155.734375 309.101562 C 173.925781 320.476562 198.832031 328.980469 231.597656 332.226562 C 231.917969 322.289062 229.425781 311.824219 224.238281 300.878906 C 219.09375 290.003906 214.351562 286.617188 227.324219 279.363281 C 234.941406 275.101562 240.851562 274.648438 242.933594 267.28125 C 246.25 255.511719 249.082031 253.050781 239.96875 248.660156 C 235.898438 246.699219 232.28125 244.15625 229.054688 241.152344 C 220.589844 233.269531 216.792969 232.066406 204.710938 235.574219 C 199.363281 231.050781 194.773438 225.300781 190.492188 219.03125 C 184.632812 227.441406 183.988281 236.539062 183.957031 245.722656 C 179.183594 252.589844 175.363281 260.960938 172.671875 269.421875 C 167.304688 286.265625 167.664062 293.34375 155.734375 309.101562 " fill-opacity="1" fill-rule="evenodd"/><path fill="#fbc108" d="M 54.507812 180.988281 C 68.902344 172.917969 89.664062 182.566406 100.871094 202.558594 C 112.085938 222.546875 109.503906 245.292969 95.101562 253.363281 C 80.710938 261.433594 59.945312 251.785156 48.742188 231.792969 C 37.523438 211.804688 40.105469 189.058594 54.507812 180.988281 " fill-opacity="1" fill-rule="evenodd"/><path fill="#fbc108" d="M 90.851562 96.34375 C 107.261719 87.5625 130.460938 98.910156 142.660156 121.703125 C 154.863281 144.488281 151.445312 170.085938 135.023438 178.867188 C 118.609375 187.652344 95.414062 176.304688 83.214844 153.511719 C 71.023438 130.726562 74.4375 105.128906 90.851562 96.34375 " fill-opacity="1" fill-rule="evenodd"/><path fill="#fbc108" d="M 157.144531 51.230469 C 172.558594 41.300781 196.863281 51.773438 211.40625 74.605469 C 225.949219 97.441406 225.246094 123.992188 209.816406 133.921875 C 194.398438 143.855469 170.097656 133.382812 155.554688 110.546875 C 141.003906 87.710938 141.714844 61.160156 157.144531 51.230469 " fill-opacity="1" fill-rule="evenodd"/><path fill="#fbc108" d="M 249.285156 54.90625 C 263.144531 46.605469 284.984375 55.359375 298.050781 74.464844 C 311.125 93.570312 310.480469 115.78125 296.621094 124.09375 C 282.761719 132.394531 260.921875 123.640625 247.847656 104.535156 C 234.78125 85.429688 235.414062 63.210938 249.285156 54.90625 " fill-opacity="1" fill-rule="evenodd"/><g clip-path="url(#4ca6b37463)"><path fill="#ffffff" d="M 356.738281 41.300781 L 469.238281 41.300781 L 469.238281 153.800781 L 356.738281 153.800781 Z M 356.738281 41.300781 " fill-opacity="1" fill-rule="nonzero"/></g></svg>